<svg width="41" height="41" viewBox="0 0 41 41" fill="none" xmlns="http://www.w3.org/2000/svg">
<rect x="0.666992" y="0.5" width="40" height="40" rx="6" fill="#228D4D" fill-opacity="0.08"/>
<path d="M16.1974 12.9698L16.5509 12.6162V12.6162L16.1974 12.9698ZM15.667 12.4395L16.0206 12.0859C15.8253 11.8906 15.5088 11.8906 15.3135 12.0859L15.667 12.4395ZM20.1974 16.9698L20.5509 17.3233C20.7462 17.1281 20.7462 16.8115 20.5509 16.6162L20.1974 16.9698ZM19.1367 18.0304L18.7832 18.384C18.8769 18.4778 19.0041 18.5304 19.1367 18.5304C19.2693 18.5304 19.3965 18.4778 19.4903 18.384L19.1367 18.0304ZM15.667 14.5608L16.0206 14.2072C15.9268 14.1135 15.7997 14.0608 15.667 14.0608C15.5344 14.0608 15.4073 14.1135 15.3135 14.2072L15.667 14.5608ZM12.1974 18.0304L11.8438 18.384C11.9376 18.4778 12.0648 18.5304 12.1974 18.5304C12.33 18.5304 12.4572 18.4778 12.5509 18.384L12.1974 18.0304ZM11.1367 16.9698L10.7832 16.6162C10.5879 16.8115 10.5879 17.1281 10.7832 17.3233L11.1367 16.9698ZM15.1367 12.9698L14.7832 12.6162V12.6162L15.1367 12.9698ZM16.167 13.5001C16.167 13.224 15.9432 13.0001 15.667 13.0001C15.3909 13.0001 15.167 13.224 15.167 13.5001H16.167ZM15.167 27.5001C15.167 27.7763 15.3909 28.0001 15.667 28.0001C15.9432 28.0001 16.167 27.7763 16.167 27.5001H15.167ZM16.5509 12.6162L16.0206 12.0859L15.3135 12.793L15.8438 13.3233L16.5509 12.6162ZM20.5509 16.6162L16.5509 12.6162L15.8438 13.3233L19.8438 17.3233L20.5509 16.6162ZM19.4903 18.384L20.5509 17.3233L19.8438 16.6162L18.7832 17.6769L19.4903 18.384ZM15.3135 14.9143L18.7832 18.384L19.4903 17.6769L16.0206 14.2072L15.3135 14.9143ZM12.5509 18.384L16.0206 14.9143L15.3135 14.2072L11.8438 17.6769L12.5509 18.384ZM10.7832 17.3233L11.8438 18.384L12.5509 17.6769L11.4903 16.6162L10.7832 17.3233ZM14.7832 12.6162L10.7832 16.6162L11.4903 17.3233L15.4903 13.3233L14.7832 12.6162ZM15.3135 12.0859L14.7832 12.6162L15.4903 13.3233L16.0206 12.793L15.3135 12.0859ZM15.167 13.5001V27.5001H16.167V13.5001H15.167Z" fill="#4B465C"/>
<path d="M16.1974 12.9698L16.5509 12.6162V12.6162L16.1974 12.9698ZM15.667 12.4395L16.0206 12.0859C15.8253 11.8906 15.5088 11.8906 15.3135 12.0859L15.667 12.4395ZM20.1974 16.9698L20.5509 17.3233C20.7462 17.1281 20.7462 16.8115 20.5509 16.6162L20.1974 16.9698ZM19.1367 18.0304L18.7832 18.384C18.8769 18.4778 19.0041 18.5304 19.1367 18.5304C19.2693 18.5304 19.3965 18.4778 19.4903 18.384L19.1367 18.0304ZM15.667 14.5608L16.0206 14.2072C15.9268 14.1135 15.7997 14.0608 15.667 14.0608C15.5344 14.0608 15.4073 14.1135 15.3135 14.2072L15.667 14.5608ZM12.1974 18.0304L11.8438 18.384C11.9376 18.4778 12.0648 18.5304 12.1974 18.5304C12.33 18.5304 12.4572 18.4778 12.5509 18.384L12.1974 18.0304ZM11.1367 16.9698L10.7832 16.6162C10.5879 16.8115 10.5879 17.1281 10.7832 17.3233L11.1367 16.9698ZM15.1367 12.9698L14.7832 12.6162V12.6162L15.1367 12.9698ZM16.167 13.5001C16.167 13.224 15.9432 13.0001 15.667 13.0001C15.3909 13.0001 15.167 13.224 15.167 13.5001H16.167ZM15.167 27.5001C15.167 27.7763 15.3909 28.0001 15.667 28.0001C15.9432 28.0001 16.167 27.7763 16.167 27.5001H15.167ZM16.5509 12.6162L16.0206 12.0859L15.3135 12.793L15.8438 13.3233L16.5509 12.6162ZM20.5509 16.6162L16.5509 12.6162L15.8438 13.3233L19.8438 17.3233L20.5509 16.6162ZM19.4903 18.384L20.5509 17.3233L19.8438 16.6162L18.7832 17.6769L19.4903 18.384ZM15.3135 14.9143L18.7832 18.384L19.4903 17.6769L16.0206 14.2072L15.3135 14.9143ZM12.5509 18.384L16.0206 14.9143L15.3135 14.2072L11.8438 17.6769L12.5509 18.384ZM10.7832 17.3233L11.8438 18.384L12.5509 17.6769L11.4903 16.6162L10.7832 17.3233ZM14.7832 12.6162L10.7832 16.6162L11.4903 17.3233L15.4903 13.3233L14.7832 12.6162ZM15.3135 12.0859L14.7832 12.6162L15.4903 13.3233L16.0206 12.793L15.3135 12.0859ZM15.167 13.5001V27.5001H16.167V13.5001H15.167Z" fill="white" fill-opacity="0.2"/>
<path d="M30.2857 24.1187C30.6274 23.777 30.6274 23.223 30.2857 22.8813C29.944 22.5396 29.39 22.5396 29.0483 22.8813L30.2857 24.1187ZM25.667 27.5L25.0483 28.1187C25.39 28.4604 25.944 28.4604 26.2857 28.1187L25.667 27.5ZM22.2857 22.8813C21.944 22.5396 21.39 22.5396 21.0483 22.8813C20.7066 23.223 20.7066 23.777 21.0483 24.1187L22.2857 22.8813ZM24.792 27.5C24.792 27.9832 25.1837 28.375 25.667 28.375C26.1502 28.375 26.542 27.9832 26.542 27.5H24.792ZM26.542 13.5C26.542 13.0168 26.1502 12.625 25.667 12.625C25.1837 12.625 24.792 13.0168 24.792 13.5H26.542ZM29.0483 22.8813L25.0483 26.8813L26.2857 28.1187L30.2857 24.1187L29.0483 22.8813ZM26.2857 26.8813L22.2857 22.8813L21.0483 24.1187L25.0483 28.1187L26.2857 26.8813ZM26.542 27.5V13.5H24.792V27.5H26.542Z" fill="#4B465C"/>
<path d="M30.2857 24.1187C30.6274 23.777 30.6274 23.223 30.2857 22.8813C29.944 22.5396 29.39 22.5396 29.0483 22.8813L30.2857 24.1187ZM25.667 27.5L25.0483 28.1187C25.39 28.4604 25.944 28.4604 26.2857 28.1187L25.667 27.5ZM22.2857 22.8813C21.944 22.5396 21.39 22.5396 21.0483 22.8813C20.7066 23.223 20.7066 23.777 21.0483 24.1187L22.2857 22.8813ZM24.792 27.5C24.792 27.9832 25.1837 28.375 25.667 28.375C26.1502 28.375 26.542 27.9832 26.542 27.5H24.792ZM26.542 13.5C26.542 13.0168 26.1502 12.625 25.667 12.625C25.1837 12.625 24.792 13.0168 24.792 13.5H26.542ZM29.0483 22.8813L25.0483 26.8813L26.2857 28.1187L30.2857 24.1187L29.0483 22.8813ZM26.2857 26.8813L22.2857 22.8813L21.0483 24.1187L25.0483 28.1187L26.2857 26.8813ZM26.542 27.5V13.5H24.792V27.5H26.542Z" fill="white" fill-opacity="0.2"/>
</svg>
