<svg width="41" height="41" viewBox="0 0 41 41" fill="none" xmlns="http://www.w3.org/2000/svg">
<rect x="0.333008" y="0.5" width="40" height="40" rx="6" fill="#228D4D" fill-opacity="0.08"/>
<path d="M15.333 18.5L20.333 12.5L25.333 18.5" stroke="#4B465C" stroke-width="1.5" stroke-linecap="round" stroke-linejoin="round"/>
<path d="M15.333 18.5L20.333 12.5L25.333 18.5" stroke="white" stroke-opacity="0.2" stroke-width="1.5" stroke-linecap="round" stroke-linejoin="round"/>
<path fill-rule="evenodd" clip-rule="evenodd" d="M29.333 18.5L27.333 26.5C27.1401 27.6828 26.2985 28.5243 25.333 28.5H15.333C14.3675 28.5243 13.526 27.6828 13.333 26.5L11.333 18.5H29.333Z" stroke="#4B465C" stroke-width="1.75" stroke-linecap="round" stroke-linejoin="round"/>
<path fill-rule="evenodd" clip-rule="evenodd" d="M29.333 18.5L27.333 26.5C27.1401 27.6828 26.2985 28.5243 25.333 28.5H15.333C14.3675 28.5243 13.526 27.6828 13.333 26.5L11.333 18.5H29.333Z" stroke="white" stroke-opacity="0.2" stroke-width="1.75" stroke-linecap="round" stroke-linejoin="round"/>
<circle cx="20.333" cy="23.5" r="2" stroke="#4B465C" stroke-width="1.75" stroke-linecap="round" stroke-linejoin="round"/>
<circle cx="20.333" cy="23.5" r="2" stroke="white" stroke-opacity="0.2" stroke-width="1.75" stroke-linecap="round" stroke-linejoin="round"/>
</svg>
